<svg xmlns="http://www.w3.org/2000/svg" xmlns:xlink="http://www.w3.org/1999/xlink" width="100" height="35"><defs><path id="a" d="M13.347.917H0V18.01h13.347V.917z"/><path id="c" d="M0 34h100V.917H0z"/></defs><g fill="none" fill-rule="evenodd"><path fill="#FFF" d="M25.282 10.585L20.119 1.47h-3.726v16.443h4.035V9.489l3.879 7.066h1.866l3.878-7.2v8.558h4.034V1.47h-3.704zM46.925 11.594h-3.7l1.849-4.57 1.851 4.57zM43.01 1.47l-6.865 16.443h4.374l1.144-2.597h6.803l1.167 2.597h4.35L47.117 1.47H43.01zM70.805 5.192h4.033v12.721h4.033V5.192h4.034V1.47h-12.1zM95.171 1.47l-3.059 5.191-3.078-5.191h-4.828l5.879 9.977v6.466h4.035v-6.466l5.879-9.977z"/><g transform="translate(0 .083)"><path fill="#FFF" d="M64.901 7.036c0-.948-.77-1.721-1.72-1.721h-3.39v3.442h3.39c.95 0 1.72-.772 1.72-1.721zm3.938 0A5.675 5.675 0 0 1 65.89 12l4.533 5.846-4.758-.016-3.905-5.135h-1.973l-.004 5.115-4.03-.013V1.376h7.428a5.666 5.666 0 0 1 5.66 5.66z"/><mask id="b" fill="#fff"><use xlink:href="#a"/></mask><path fill="#FFF" d="M13.347 12.72c0-3.064-2.119-4.245-5.301-5.074C5.289 6.94 4.732 6.62 4.732 5.744v-.045c0-.716.725-1.18 1.847-1.18 1.504 0 2.836.418 4.073 1.276l.19.133 2.102-3.047-.168-.135C11.222 1.498 9.268.916 6.626.916c-3.467 0-5.89 2.1-5.89 5.106v.046c0 3.472 2.506 4.394 5.532 5.167 2.876.737 3.084 1.184 3.084 1.832v.046c0 .81-.786 1.294-2.103 1.294-1.756 0-3.243-.553-4.68-1.74l-.177-.146L0 15.387l.166.149c1.813 1.618 4.239 2.474 7.014 2.474 3.747 0 6.167-2.06 6.167-5.244v-.046z" mask="url(#b)"/><path fill="#92CEC4" d="M7.439 30.111c0 .294-.059.566-.177.818-.117.251-.29.472-.518.661-.451.38-1.029.568-1.734.568a3.27 3.27 0 0 1-1.489-.334c-.444-.223-.77-.523-.979-.9l.872-.45c.129.235.337.416.622.543.283.127.608.191.974.191.947 0 1.42-.363 1.42-1.089a.783.783 0 0 0-.073-.353.902.902 0 0 0-.221-.275c-.235-.196-.656-.373-1.263-.529a5.949 5.949 0 0 1-.931-.305 2.35 2.35 0 0 1-.636-.392c-.412-.334-.617-.775-.617-1.324a1.857 1.857 0 0 1 .617-1.393c.202-.177.439-.31.71-.397.271-.089.569-.133.896-.133.476 0 .916.092 1.317.274.402.183.707.441.916.774l-.793.49a1.585 1.585 0 0 0-.656-.485 2.175 2.175 0 0 0-.784-.142c-.196 0-.375.033-.538.098a1.563 1.563 0 0 0-.413.235.698.698 0 0 0-.2.29 1.033 1.033 0 0 0-.063.366.87.87 0 0 0 .039.26c.025.088.088.18.185.274.099.095.243.186.432.274.189.088.447.175.773.26.392.098.722.204.99.318.267.114.493.25.676.407.43.352.646.82.646 1.4m2.1 1.95h-.958v-4.692h.949l.01 4.691zm-.488-5.71a.577.577 0 0 1-.431-.182.6.6 0 0 1-.177-.436c0-.17.059-.314.177-.43a.584.584 0 0 1 .43-.178c.17 0 .314.06.43.177a.58.58 0 0 1 .178.431.595.595 0 0 1-.177.436.575.575 0 0 1-.43.181zm2.693 5.71h-.95v-4.692h.754l.196.401c.117-.136.258-.255.42-.357.164-.102.363-.151.599-.151a1.572 1.572 0 0 1 .66.151c.122.055.237.13.348.226a1.2 1.2 0 0 1 .285.367 1.49 1.49 0 0 1 .503-.524c.226-.148.466-.22.72-.22.17 0 .35.026.539.078.19.052.366.15.53.294.163.142.296.343.4.596.105.255.158.585.158.99v2.84h-.891v-2.85c0-.405-.084-.688-.25-.848-.167-.159-.387-.24-.662-.24a.712.712 0 0 0-.548.265c-.157.177-.235.454-.235.834v2.84h-.891v-2.85c0-.405-.083-.688-.25-.848-.166-.16-.387-.24-.662-.24a.696.696 0 0 0-.513.226c-.148.15-.234.384-.26.704v3.007zm8.757-3.938c-.19 0-.37.031-.54.093-.17.062-.32.16-.447.294-.128.134-.229.3-.3.499a2.092 2.092 0 0 0-.109.711c0 .294.037.543.11.749.07.206.171.372.3.499.126.128.275.221.446.28.17.058.35.087.54.087.19 0 .37-.042.54-.127.171-.085.318-.2.442-.347a1.78 1.78 0 0 0 .404-1.141c0-.222-.036-.431-.109-.627a1.603 1.603 0 0 0-.295-.51 1.338 1.338 0 0 0-.442-.337 1.227 1.227 0 0 0-.54-.123zM18.155 34v-6.631h.746l.195.49c.19-.19.407-.337.653-.441.245-.105.522-.157.83-.157.326 0 .63.064.907.191.28.128.52.302.722.524.203.222.362.483.477.784.114.3.171.62.171.96 0 .339-.057.659-.17.96-.116.3-.275.561-.478.783a2.195 2.195 0 0 1-.722.524 2.16 2.16 0 0 1-.908.191c-.32 0-.602-.054-.845-.161a1.883 1.883 0 0 1-.637-.466V34h-.94z"/><mask id="d" fill="#fff"><use xlink:href="#c"/></mask><path fill="#92CEC4" mask="url(#d)" d="M23.925 32.06h.95v-7.15h-.95zM28.195 28.123c-.15 0-.292.029-.426.088a1.37 1.37 0 0 0-.372.245 1.506 1.506 0 0 0-.294.372 1.764 1.764 0 0 0-.181.47H29.4a1.573 1.573 0 0 0-.107-.45 1.168 1.168 0 0 0-.613-.632 1.189 1.189 0 0 0-.485-.093m.177 4.055c-.34 0-.658-.064-.955-.191a2.441 2.441 0 0 1-1.303-1.307 2.444 2.444 0 0 1-.191-.96c0-.34.06-.66.18-.96.122-.301.285-.562.49-.784.206-.222.447-.396.72-.524a2.07 2.07 0 0 1 .882-.191c.32 0 .615.055.887.167.27.111.506.284.705.519.199.235.354.533.466.896.11.362.166.795.166 1.298H26.93a1.693 1.693 0 0 0 .564.857 1.54 1.54 0 0 0 .974.337 1.735 1.735 0 0 0 1.235-.499l.588.588c-.23.228-.508.411-.838.549-.33.136-.691.205-1.082.205M32.2 33.314h-.793l.323-2.409h1.107zM37.06 32.06h-.948v-7.15h.949l-.002 2.89c.176-.197.36-.335.553-.416.19-.082.415-.122.669-.122.326 0 .617.063.875.19.257.127.476.302.659.524.183.223.32.483.415.784.095.3.143.62.143.96v2.34h-.951v-2.34c0-.223-.031-.431-.093-.627a1.709 1.709 0 0 0-.254-.51 1.286 1.286 0 0 0-.372-.337.902.902 0 0 0-.456-.123 1.057 1.057 0 0 0-.789.353 1.475 1.475 0 0 0-.284.49 2.117 2.117 0 0 0-.113.733v2.361zm6.608-3.957c-.19 0-.37.042-.54.127a1.486 1.486 0 0 0-.448.345 1.577 1.577 0 0 0-.3.51 1.82 1.82 0 0 0-.108.63c0 .222.036.431.108.628.072.197.172.368.3.516.128.147.276.264.447.348.17.086.351.128.541.128.19 0 .37-.042.54-.128.17-.084.317-.2.442-.348a1.793 1.793 0 0 0 .404-1.145c0-.222-.036-.432-.109-.629a1.641 1.641 0 0 0-.295-.51 1.441 1.441 0 0 0-.442-.345 1.194 1.194 0 0 0-.54-.127m.004 4.075c-.326 0-.63-.064-.915-.19a2.342 2.342 0 0 1-.744-.526 2.482 2.482 0 0 1-.505-.783c-.124-.3-.187-.62-.187-.96 0-.339.063-.659.187-.96.124-.3.292-.56.505-.783a2.34 2.34 0 0 1 .744-.524 2.2 2.2 0 0 1 .915-.19c.32 0 .624.062.911.19.287.127.537.302.75.524.212.222.38.483.504.783.124.301.186.621.186.96 0 .34-.062.66-.186.96-.124.3-.292.562-.505.783a2.33 2.33 0 0 1-.749.525 2.228 2.228 0 0 1-.91.191m4.24-.117h-.95v-4.692h.755l.195.412c.157-.15.346-.275.568-.372.222-.098.464-.147.725-.147.17 0 .362.026.578.078.216.052.416.15.603.294a1.7 1.7 0 0 1 .47.596c.127.255.191.585.191.99v2.84h-.902v-2.85c0-.203-.03-.373-.092-.514a.915.915 0 0 0-.245-.338.924.924 0 0 0-.343-.181 1.497 1.497 0 0 0-.397-.055 1.299 1.299 0 0 0-.735.25c-.117.088-.217.2-.298.334a.926.926 0 0 0-.123.495v2.86zm6.543-3.938c-.15 0-.292.029-.426.088a1.355 1.355 0 0 0-.372.245 1.483 1.483 0 0 0-.294.372 1.73 1.73 0 0 0-.18.47h2.477a1.575 1.575 0 0 0-.108-.45 1.146 1.146 0 0 0-.613-.632 1.18 1.18 0 0 0-.484-.093m.177 4.055c-.34 0-.658-.064-.955-.191a2.461 2.461 0 0 1-.78-.524 2.455 2.455 0 0 1-.714-1.743c0-.34.06-.66.181-.96.12-.301.284-.562.49-.784.205-.222.446-.396.72-.524.274-.127.568-.191.881-.191.32 0 .615.055.887.167.27.111.506.284.705.519.2.235.353.533.465.896.111.362.167.795.167 1.298h-3.488a1.693 1.693 0 0 0 .564.857 1.547 1.547 0 0 0 .974.337 1.735 1.735 0 0 0 1.235-.499l.587.588a2.59 2.59 0 0 1-.837.549c-.33.136-.69.205-1.082.205m5.348-1.097c.059-.052.11-.111.156-.176a.38.38 0 0 0 .069-.225.353.353 0 0 0-.113-.265.982.982 0 0 0-.274-.181 1.7 1.7 0 0 0-.338-.113 17.253 17.253 0 0 1-.294-.068 4.852 4.852 0 0 1-.607-.191 2.038 2.038 0 0 1-.495-.275 1.26 1.26 0 0 1-.333-.382 1.055 1.055 0 0 1-.122-.524c0-.189.045-.367.136-.534.09-.166.21-.313.363-.44a1.874 1.874 0 0 1 1.186-.417c.202 0 .395.03.577.09.184.059.349.14.495.243.147.102.27.226.372.371.102.145.168.305.2.482l-.851.205a.714.714 0 0 0-.255-.392c-.13-.104-.31-.156-.538-.156a.932.932 0 0 0-.48.136.69.69 0 0 0-.181.167.364.364 0 0 0-.074.225c0 .091.028.169.084.234a.673.673 0 0 0 .2.161c.079.043.163.077.255.103.09.026.176.048.255.068.345.085.632.176.86.274.229.098.413.205.55.322a.998.998 0 0 1 .289.386c.055.141.083.298.083.474 0 .209-.047.404-.142.586a1.466 1.466 0 0 1-.39.474 1.845 1.845 0 0 1-.596.313 2.415 2.415 0 0 1-.747.112c-.404 0-.764-.099-1.08-.298a1.482 1.482 0 0 1-.64-.799l.804-.362c.104.228.238.384.4.465.164.082.35.122.56.122.26 0 .479-.071.656-.215m3.976 1.126a1.419 1.419 0 0 1-.706-.113 1.108 1.108 0 0 1-.509-.499c-.13-.239-.196-.573-.196-1.004v-2.38h-.686v-.649l.686-.193v-1.254h.95v1.254h1.273v.841h-1.273v2.528c0 .157.02.281.054.372a.38.38 0 0 0 .181.205.7.7 0 0 0 .333.07c.137 0 .304-.014.5-.04l.186.695a3.184 3.184 0 0 1-.793.167m5.494-.147h-.95v-4.69h.754l.196.4c.118-.136.258-.255.421-.357.163-.102.363-.151.598-.151a1.572 1.572 0 0 1 .661.151c.121.055.236.13.347.226a1.2 1.2 0 0 1 .285.367c.111-.203.28-.378.504-.524.225-.148.465-.22.72-.22.17 0 .35.026.538.078.19.052.366.15.53.294.163.142.296.343.401.596.104.255.157.585.157.99v2.84h-.89v-2.85c0-.405-.085-.688-.25-.848-.168-.159-.388-.24-.663-.24a.709.709 0 0 0-.547.265c-.158.177-.236.454-.236.834v2.84h-.89v-2.85c0-.405-.084-.688-.25-.848-.167-.16-.388-.24-.663-.24a.696.696 0 0 0-.513.226c-.147.15-.234.384-.26.704v3.007zm8.527-3.957c-.19 0-.37.042-.541.127-.17.086-.32.201-.447.345a1.577 1.577 0 0 0-.3.51 1.82 1.82 0 0 0-.108.63c0 .222.036.431.108.628.072.197.172.368.3.516.128.147.277.264.447.348a1.2 1.2 0 0 0 1.08 0c.172-.084.319-.2.443-.348a1.793 1.793 0 0 0 .404-1.145c0-.222-.036-.432-.11-.629a1.622 1.622 0 0 0-.294-.51 1.418 1.418 0 0 0-.442-.345 1.191 1.191 0 0 0-.54-.127m.005 4.075c-.327 0-.632-.064-.916-.19a2.342 2.342 0 0 1-.744-.526 2.5 2.5 0 0 1-.505-.783c-.124-.3-.186-.62-.186-.96a2.51 2.51 0 0 1 .691-1.743 2.34 2.34 0 0 1 .744-.524c.284-.128.589-.19.916-.19.319 0 .623.062.91.19.288.127.537.302.75.524a2.508 2.508 0 0 1 .69 1.743c0 .34-.062.66-.186.96-.124.3-.292.562-.504.783a2.341 2.341 0 0 1-.75.525 2.235 2.235 0 0 1-.91.191m5.69-4.055c-.19 0-.37.028-.54.083-.17.056-.317.147-.444.274a1.32 1.32 0 0 0-.3.495 2.242 2.242 0 0 0-.107.745c0 .274.036.512.108.715.072.202.172.37.299.504s.275.233.445.299c.17.065.35.097.539.097.189 0 .369-.042.539-.127.169-.085.316-.2.44-.348.125-.146.222-.318.294-.514.072-.196.108-.405.108-.626 0-.222-.036-.431-.108-.627a1.62 1.62 0 0 0-.294-.51 1.351 1.351 0 0 0-.44-.337 1.226 1.226 0 0 0-.54-.123zm-1.597 3.938h-.754V24.91h.95v2.968a1.92 1.92 0 0 1 .637-.455 2.05 2.05 0 0 1 .842-.162c.326 0 .629.064.906.191.278.128.518.302.72.524.202.222.36.483.476.784.113.3.17.62.17.96 0 .339-.057.659-.17.96-.116.3-.274.561-.476.783a2.198 2.198 0 0 1-.72.524c-.277.127-.58.191-.906.191a2.04 2.04 0 0 1-.827-.161 2.126 2.126 0 0 1-.651-.446l-.197.49zm6.121 0h-.959v-4.692h.95l.01 4.691zm-.489-5.71a.577.577 0 0 1-.43-.182.6.6 0 0 1-.178-.436c0-.17.06-.314.177-.43a.584.584 0 0 1 .431-.178c.17 0 .313.06.43.177a.58.58 0 0 1 .177.431.595.595 0 0 1-.177.436.575.575 0 0 1-.43.181zM89.501 32.06h.949v-7.15h-.949zM93.77 28.123c-.15 0-.292.029-.426.088a1.37 1.37 0 0 0-.372.245 1.506 1.506 0 0 0-.294.372 1.764 1.764 0 0 0-.18.47h2.477a1.542 1.542 0 0 0-.108-.45 1.168 1.168 0 0 0-.612-.632 1.189 1.189 0 0 0-.485-.093m.177 4.055c-.34 0-.658-.064-.955-.191a2.441 2.441 0 0 1-1.303-1.307 2.427 2.427 0 0 1-.19-.96c0-.34.06-.66.18-.96.121-.301.284-.562.49-.784.205-.222.446-.396.72-.524a2.07 2.07 0 0 1 .881-.191c.32 0 .615.055.887.167.27.111.506.284.705.519.2.235.354.533.466.896.11.362.166.795.166 1.298h-3.488a1.693 1.693 0 0 0 .564.857 1.547 1.547 0 0 0 .974.337 1.735 1.735 0 0 0 1.235-.499l.588.588c-.23.228-.508.411-.838.549-.33.136-.69.205-1.082.205"/></g></g></svg>
