<svg width="537" height="311" viewBox="0 0 537 311" fill="none" xmlns="http://www.w3.org/2000/svg">
<path fill-rule="evenodd" clip-rule="evenodd" d="M225.003 244.648C222.988 249.24 218.752 252.808 213.345 253.86L101.351 275.646C92.6993 277.329 84.4134 271.918 82.7679 263.459L53.2427 111.684C52.8795 109.817 52.9085 107.874 53.2968 105.973C52.9084 107.874 52.8794 109.817 53.2426 111.685L82.7677 263.459C84.4133 271.918 92.6992 277.329 101.351 275.646L213.344 253.86C218.752 252.808 222.988 249.241 225.003 244.648ZM49.679 95.9764L79.3011 53.3386C82.6483 48.3747 87.7902 44.766 93.8702 43.5833L169.574 28.8565C181.985 26.442 194.31 34.2083 196.777 46.8912L233.214 234.193C235.681 246.876 227.166 258.696 214.755 261.11L102.761 282.897C90.35 285.311 78.0251 277.545 75.5579 264.862L46.0328 113.087C44.8741 107.131 46.3352 100.966 49.6447 96.0275L49.679 95.9764Z" fill="#333539"/>
<path fill-rule="evenodd" clip-rule="evenodd" d="M78.4206 61.6446L48.8067 104.271C47.5002 106.244 47.1095 108.447 47.4528 110.211L76.9779 261.986C77.8017 266.221 82.0488 269.277 86.9409 268.325L198.934 246.539C203.826 245.587 206.618 241.162 205.794 236.927L169.358 49.6254C168.534 45.3907 164.287 42.3346 159.395 43.2863L83.6914 58.0131C81.6229 58.4155 79.7482 59.6638 78.4549 61.5935L78.4206 61.6446ZM42.7405 100.092L72.3594 57.4584C74.6792 53.9972 78.1953 51.5575 82.2809 50.7627L157.985 36.0359C166.636 34.3528 174.922 39.764 176.568 48.2228L213.004 235.524C214.65 243.983 208.997 252.106 200.345 253.789L88.3514 275.576C79.6995 277.259 71.4136 271.847 69.7681 263.389L40.2429 111.614C39.4907 107.747 40.4208 103.553 42.7405 100.092Z" fill="#FFD67C"/>
<path d="M107.941 160.484L111.546 159.783L112.403 164.189L108.798 164.89L109.538 168.694L104.465 169.681L103.719 165.843L94.908 167.557L92.2397 165.236L101.03 145.792L104.935 145.032L107.941 160.484ZM101.505 154.463L101.017 156.047L98.5259 161.762L98.0624 162.406L102.868 161.471L101.739 155.664L101.505 154.463ZM125.411 151.717L134.355 149.977L136.043 158.654C135.037 160.605 133.806 162.172 132.351 163.356C130.896 164.54 129.278 165.305 127.498 165.651C125.896 165.963 124.32 165.934 122.771 165.566C121.217 165.176 119.809 164.526 118.547 163.617C117.285 162.708 116.199 161.58 115.291 160.232C114.4 158.858 113.792 157.337 113.468 155.668C113.143 154 113.138 152.373 113.453 150.787C113.791 149.198 114.374 147.745 115.203 146.429C116.032 145.113 117.096 143.994 118.395 143.072C119.693 142.149 121.143 141.533 122.745 141.221C124.258 140.927 125.736 140.928 127.18 141.224C128.645 141.516 130.137 142.184 131.657 143.228L129.414 147.371C128.311 146.685 127.32 146.277 126.44 146.148C125.556 145.997 124.658 146.01 123.746 146.187C122.812 146.369 121.97 146.729 121.22 147.267C120.493 147.802 119.891 148.45 119.416 149.212C118.941 149.974 118.612 150.834 118.429 151.794C118.264 152.726 118.279 153.693 118.474 154.695C118.668 155.696 119.017 156.598 119.52 157.401C120.044 158.199 120.672 158.874 121.403 159.424C122.129 159.953 122.929 160.328 123.804 160.55C124.701 160.769 125.616 160.787 126.551 160.605C127.374 160.445 128.158 160.142 128.903 159.697C129.665 159.225 130.391 158.565 131.08 157.715L130.58 155.145L126.242 155.989L125.411 151.717ZM151.981 147.068C153.041 147.531 153.948 148.221 154.704 149.136C155.455 150.029 155.949 151.087 156.187 152.311C156.378 153.29 156.368 154.25 156.159 155.192C155.945 156.111 155.578 156.956 155.058 157.726C154.534 158.475 153.875 159.123 153.081 159.67C152.305 160.19 151.427 160.546 150.448 160.736L139.702 162.827L135.099 139.164L145.511 137.139C146.401 136.965 147.27 136.981 148.118 137.186C148.962 137.368 149.729 137.692 150.42 138.158C151.134 138.62 151.733 139.207 152.218 139.921C152.703 140.635 153.033 141.437 153.206 142.327C153.392 143.284 153.367 144.166 153.132 144.974C152.914 145.755 152.531 146.453 151.981 147.068ZM141.899 147.055L147.238 146.016C147.839 145.899 148.31 145.588 148.65 145.083C148.991 144.578 149.103 144.026 148.986 143.425C148.869 142.824 148.56 142.365 148.06 142.046C147.559 141.728 147.008 141.627 146.407 141.744L141.068 142.783L141.899 147.055ZM149.559 156.164C150.226 156.034 150.74 155.645 151.099 154.998C151.453 154.329 151.557 153.616 151.41 152.86C151.258 152.081 150.897 151.47 150.326 151.027C149.755 150.584 149.136 150.427 148.468 150.557L142.795 151.661L143.885 157.267L149.559 156.164ZM125.392 191.128C125.643 191.079 125.901 190.98 126.165 190.831C126.442 190.663 126.693 190.484 126.917 190.293C127.156 190.1 127.364 189.913 127.541 189.732C127.718 189.551 127.853 189.41 127.948 189.31L130.211 191.266C129.823 191.7 129.397 192.109 128.934 192.493C128.54 192.814 128.078 193.124 127.55 193.422C127.037 193.717 126.505 193.919 125.956 194.026L118.558 195.465L118.374 193.887C118.38 193.837 118.346 193.534 118.27 192.978C118.195 192.422 118.118 191.736 118.041 190.92L117.866 189.267L116.688 189.496L116.115 186.551L117.458 186.29L117.435 186.172C117.402 185.999 117.365 185.811 117.325 185.607C117.282 185.387 117.252 185.189 117.234 185.013C117.194 184.809 117.164 184.611 117.143 184.42C116.905 183.195 116.887 182.179 117.089 181.374C117.29 180.569 117.605 179.921 118.031 179.43C118.47 178.921 118.959 178.549 119.5 178.313C120.057 178.074 120.571 177.909 121.042 177.818C121.906 177.65 122.684 177.669 123.376 177.877C124.069 178.085 124.667 178.392 125.17 178.799C125.688 179.204 126.11 179.652 126.433 180.143C126.757 180.634 126.997 181.068 127.151 181.446L124.364 182.575C124.336 182.515 124.26 182.375 124.135 182.155C124.024 181.916 123.855 181.679 123.631 181.446C123.419 181.194 123.142 180.987 122.801 180.825C122.46 180.663 122.061 180.627 121.606 180.715C121.213 180.792 120.886 180.912 120.625 181.077C120.379 181.239 120.202 181.502 120.094 181.865C120.001 182.226 119.973 182.712 120.011 183.324C120.048 183.936 120.163 184.737 120.356 185.726L124.526 184.915L125.098 187.86L120.74 188.708L121.128 191.957L125.392 191.128ZM138.548 180.867C139.408 181.27 140.133 181.854 140.722 182.62C141.324 183.367 141.72 184.227 141.909 185.201C142.065 186.002 142.054 186.786 141.878 187.554C141.714 188.303 141.425 188.995 141.01 189.63C140.596 190.265 140.066 190.808 139.42 191.26C138.787 191.692 138.07 191.987 137.269 192.143C136.468 192.298 135.685 192.296 134.921 192.135C134.168 191.955 133.481 191.649 132.859 191.216C132.237 190.782 131.702 190.251 131.253 189.621C130.817 188.972 130.521 188.247 130.365 187.446C130.259 186.897 130.243 186.354 130.318 185.818C130.389 185.266 130.504 184.722 130.66 184.186C130.667 184.136 130.716 183.971 130.809 183.693C130.898 183.398 131.008 183.043 131.139 182.626C131.267 182.194 131.411 181.717 131.57 181.197C131.727 180.662 131.89 180.116 132.059 179.562C132.461 178.278 132.907 176.838 133.395 175.243L137.423 174.46L135.457 180.564C136.007 180.457 136.54 180.434 137.058 180.497C137.591 180.556 138.087 180.679 138.548 180.867ZM136.543 188.91C136.857 188.849 137.143 188.728 137.401 188.547C137.656 188.351 137.865 188.123 138.026 187.863C138.2 187.585 138.313 187.286 138.365 186.966C138.429 186.628 138.43 186.293 138.366 185.964C138.228 185.257 137.892 184.703 137.358 184.301C136.839 183.897 136.21 183.767 135.472 183.91C135.189 183.965 134.917 184.075 134.656 184.24C134.395 184.405 134.18 184.642 134.012 184.952L133.983 185.056C133.9 185.381 133.826 185.714 133.762 186.052C133.713 186.388 133.708 186.658 133.748 186.862C133.812 187.192 133.93 187.503 134.101 187.796C134.285 188.07 134.501 188.304 134.751 188.5C135.014 188.677 135.3 188.809 135.611 188.896C135.918 188.966 136.228 188.971 136.543 188.91Z" fill="white"/>
<path fill-rule="evenodd" clip-rule="evenodd" d="M438.303 47.9748L392.996 73.2983C390.957 74.4987 389.64 76.3072 389.174 78.0436L349.156 227.395C348.039 231.562 350.516 236.171 355.33 237.461L465.535 266.99C470.349 268.28 474.799 265.527 475.915 261.36L525.301 77.0491C526.418 72.882 523.941 68.273 519.127 66.9831L444.632 47.0222C442.597 46.4768 440.364 46.7767 438.356 47.9438L438.303 47.9748ZM389.377 66.8824L434.691 41.5547C438.294 39.4612 442.524 38.8104 446.544 39.8876L521.039 59.8485C529.552 62.1297 534.626 70.6264 532.396 78.9501L483.01 263.261C480.78 271.585 472.137 276.406 463.624 274.125L353.418 244.596C344.905 242.314 339.831 233.818 342.061 225.494L382.08 76.1425C383.099 72.3374 385.774 68.9759 389.377 66.8824Z" fill="#FF9569"/>
<path d="M409.13 134.27C410.303 135.696 411.076 137.316 411.447 139.13C411.826 140.914 411.77 142.724 411.278 144.561C410.873 146.071 410.196 147.414 409.246 148.588C408.334 149.741 407.254 150.69 406.007 151.435C404.759 152.18 403.39 152.67 401.898 152.906C400.444 153.119 398.962 153.024 397.451 152.619C396.266 152.301 395.192 151.807 394.229 151.136C393.258 150.495 392.4 149.726 391.657 148.828C390.943 147.938 390.364 146.958 389.921 145.886C389.515 144.793 389.263 143.662 389.163 142.493L395.695 141.576C395.654 142.676 395.92 143.7 396.492 144.647C397.101 145.572 397.924 146.174 398.961 146.451C399.553 146.61 400.148 146.642 400.744 146.548C401.349 146.425 401.899 146.207 402.396 145.895C402.929 145.562 403.375 145.142 403.733 144.635C404.129 144.106 404.41 143.53 404.577 142.908C404.752 142.257 404.796 141.618 404.71 140.991C404.661 140.343 404.485 139.756 404.181 139.231C403.915 138.683 403.533 138.215 403.033 137.828C402.572 137.418 402 137.122 401.319 136.94C400.489 136.717 399.708 136.73 398.975 136.978L396.773 131.864L403.826 126.515L395.784 124.36L397.427 118.229L413.823 122.622L413.001 125.688L405.847 131.771C407.167 132.411 408.262 133.244 409.13 134.27ZM432.716 127.256C434.493 127.732 436.046 128.513 437.374 129.599C438.702 130.685 439.725 132.023 440.442 133.612C441.138 135.164 441.547 136.893 441.672 138.799C441.825 140.713 441.612 142.752 441.033 144.914L439.997 148.78C439.45 150.824 438.635 152.621 437.552 154.173C436.478 155.694 435.222 156.945 433.785 157.925C432.339 158.935 430.785 159.582 429.121 159.867C427.465 160.121 425.779 160.019 424.061 159.558C422.372 159.106 420.868 158.322 419.548 157.206C418.257 156.098 417.227 154.727 416.459 153.093C415.734 151.533 415.272 149.822 415.072 147.959C414.903 146.104 415.08 144.199 415.604 142.244L416.64 138.378C417.211 136.245 418.027 134.384 419.088 132.795C420.157 131.177 421.376 129.884 422.746 128.918C424.17 127.871 425.728 127.209 427.421 126.932C429.144 126.664 430.909 126.772 432.716 127.256ZM434.175 143.315C434.937 140.471 434.962 138.128 434.249 136.286C433.672 134.766 432.584 133.792 430.984 133.364C429.385 132.935 427.955 133.235 426.695 134.262C425.157 135.501 424.007 137.542 423.245 140.386L422.352 143.718C422.019 144.962 421.857 146.157 421.868 147.303C421.886 148.419 422.088 149.442 422.474 150.371C423.109 152.033 424.151 153.058 425.603 153.447C426.432 153.669 427.224 153.675 427.979 153.465C428.772 153.233 429.5 152.825 430.164 152.241C430.837 151.627 431.441 150.853 431.978 149.917C432.514 148.981 432.949 147.891 433.282 146.647L434.175 143.315ZM454.497 153.17L463.299 155.528L461.011 164.067C459.251 165.379 457.458 166.248 455.631 166.674C453.804 167.099 452.014 167.077 450.263 166.608C448.686 166.186 447.283 165.469 446.051 164.459C444.826 163.427 443.846 162.225 443.11 160.855C442.374 159.484 441.894 157.995 441.668 156.385C441.47 154.76 441.591 153.126 442.031 151.484C442.471 149.842 443.18 148.378 444.158 147.091C445.158 145.81 446.32 144.76 447.642 143.941C448.964 143.122 450.411 142.583 451.983 142.324C453.554 142.064 455.128 142.146 456.704 142.568C458.193 142.967 459.521 143.616 460.688 144.516C461.877 145.421 462.925 146.676 463.833 148.28L460.001 151.019C459.31 149.919 458.598 149.118 457.864 148.616C457.136 148.093 456.324 147.711 455.426 147.47C454.506 147.224 453.592 147.178 452.682 147.333C451.794 147.494 450.969 147.813 450.208 148.29C449.447 148.766 448.774 149.396 448.189 150.177C447.631 150.943 447.221 151.819 446.957 152.804C446.693 153.789 446.611 154.753 446.71 155.695C446.832 156.643 447.1 157.524 447.515 158.339C447.936 159.133 448.491 159.821 449.179 160.404C449.89 160.994 450.705 161.411 451.624 161.658C452.434 161.875 453.272 161.947 454.136 161.873C455.028 161.784 455.97 161.508 456.962 161.047L457.64 158.518L453.371 157.374L454.497 153.17ZM480.415 160.643C481.164 161.524 481.678 162.542 481.955 163.695C482.238 164.827 482.219 165.995 481.896 167.2C481.638 168.163 481.208 169.022 480.607 169.776C480.012 170.508 479.312 171.107 478.507 171.571C477.708 172.014 476.832 172.307 475.878 172.451C474.952 172.578 474.008 172.513 473.044 172.255L462.469 169.421L468.708 146.137L478.955 148.882C479.831 149.117 480.605 149.512 481.277 150.068C481.955 150.601 482.503 151.229 482.92 151.951C483.358 152.679 483.639 153.47 483.762 154.324C483.885 155.178 483.83 156.043 483.595 156.919C483.343 157.86 482.934 158.643 482.368 159.265C481.83 159.872 481.179 160.331 480.415 160.643ZM471.359 156.21L476.614 157.618C477.205 157.776 477.765 157.703 478.292 157.399C478.819 157.094 479.162 156.646 479.321 156.055C479.479 155.464 479.403 154.916 479.093 154.41C478.782 153.905 478.332 153.573 477.74 153.414L472.486 152.006L471.359 156.21ZM474.25 167.756C474.907 167.931 475.538 167.807 476.145 167.383C476.757 166.937 477.163 166.342 477.362 165.598C477.568 164.831 477.511 164.124 477.192 163.475C476.873 162.826 476.385 162.414 475.728 162.238L470.145 160.742L468.667 166.26L474.25 167.756ZM417.615 183.334C417.862 183.4 418.137 183.424 418.44 183.406C418.763 183.377 419.066 183.326 419.351 183.253C419.651 183.184 419.92 183.107 420.158 183.022C420.396 182.937 420.58 182.87 420.709 182.821L421.885 185.572C421.346 185.792 420.784 185.972 420.199 186.114C419.704 186.23 419.154 186.306 418.548 186.342C417.957 186.383 417.392 186.33 416.851 186.186L409.571 184.235L410.097 182.736C410.125 182.694 410.227 182.406 410.403 181.874C410.579 181.341 410.811 180.691 411.099 179.924L411.667 178.361L410.508 178.051L411.284 175.153L412.606 175.507L412.637 175.391C412.682 175.221 412.732 175.036 412.786 174.835C412.844 174.618 412.903 174.427 412.964 174.261C413.018 174.06 413.078 173.869 413.143 173.688C413.466 172.483 413.895 171.562 414.429 170.927C414.964 170.292 415.53 169.847 416.128 169.593C416.746 169.328 417.35 169.208 417.939 169.234C418.544 169.263 419.078 169.34 419.542 169.464C420.392 169.692 421.083 170.051 421.614 170.541C422.145 171.031 422.548 171.57 422.821 172.157C423.11 172.748 423.292 173.335 423.368 173.918C423.443 174.502 423.468 174.997 423.442 175.404L420.441 175.196C420.442 175.13 420.435 174.971 420.42 174.719C420.425 174.455 420.377 174.169 420.277 173.86C420.197 173.541 420.04 173.234 419.804 172.938C419.568 172.643 419.226 172.436 418.778 172.316C418.392 172.212 418.045 172.177 417.738 172.211C417.446 172.249 417.172 172.407 416.915 172.686C416.673 172.969 416.435 173.394 416.201 173.961C415.966 174.527 415.718 175.297 415.457 176.271L419.56 177.371L418.784 180.268L414.495 179.119L413.419 182.21L417.615 183.334ZM426.928 171.269L432.399 172.735L427.995 189.172L424.471 188.227L428.018 174.99L426.07 174.469L426.928 171.269ZM441.43 174.932C442.358 175.18 443.168 175.588 443.861 176.154C444.554 176.721 445.087 177.419 445.461 178.248C445.824 179.058 446.038 179.96 446.103 180.954C446.183 181.953 446.072 183.017 445.77 184.145L445.229 186.162C444.944 187.228 444.518 188.166 443.954 188.975C443.393 189.769 442.738 190.422 441.988 190.933C441.234 191.46 440.423 191.798 439.555 191.946C438.691 192.079 437.811 192.025 436.915 191.785C436.034 191.549 435.249 191.14 434.56 190.558C433.887 189.98 433.349 189.265 432.949 188.412C432.57 187.598 432.329 186.705 432.225 185.733C432.137 184.765 432.229 183.771 432.502 182.751L433.043 180.735C433.341 179.622 433.767 178.651 434.32 177.822C434.878 176.977 435.514 176.303 436.229 175.799C436.971 175.253 437.785 174.907 438.668 174.763C439.567 174.623 440.488 174.679 441.43 174.932ZM442.192 183.31C442.589 181.827 442.602 180.604 442.23 179.643C441.929 178.85 441.361 178.342 440.527 178.118C439.692 177.895 438.946 178.051 438.289 178.587C437.487 179.234 436.887 180.299 436.489 181.782L436.023 183.521C435.849 184.17 435.765 184.793 435.77 185.391C435.78 185.974 435.886 186.507 436.087 186.992C436.418 187.859 436.962 188.394 437.719 188.597C438.152 188.713 438.565 188.716 438.959 188.606C439.373 188.485 439.753 188.272 440.099 187.967C440.45 187.647 440.765 187.243 441.045 186.755C441.325 186.267 441.552 185.698 441.726 185.049L442.192 183.31Z" fill="white"/>
<path fill-rule="evenodd" clip-rule="evenodd" d="M359.201 259.544C355.878 262.779 351.282 264.769 346.192 264.769H214.405C204.224 264.769 196.023 256.806 196.023 246.853V68.2537C196.023 66.0854 196.472 63.9172 197.31 61.872C196.472 63.9173 196.023 66.0858 196.023 68.2543V246.853C196.023 256.807 204.224 264.77 214.405 264.77H346.192C351.282 264.77 355.878 262.779 359.201 259.544ZM195.447 49.6577L238.438 7.84743C243.328 2.95746 249.954 0 257.108 0H346.192C360.797 0 373.058 11.5241 373.058 26.4486V246.853C373.058 261.778 360.797 273.302 346.192 273.302H214.405C199.8 273.302 187.539 261.778 187.539 246.853V68.2543C187.539 61.2456 190.555 54.577 195.397 49.7081L195.447 49.6577Z" fill="#333539"/>
<path fill-rule="evenodd" clip-rule="evenodd" d="M250.331 20.018L207.352 61.8168C205.436 63.7658 204.507 66.1774 204.507 68.2538V246.853C204.507 251.836 208.648 256.238 214.405 256.238H346.192C351.949 256.238 356.09 251.836 356.09 246.853V26.448C356.09 21.465 351.949 17.063 346.192 17.063H257.109C254.675 17.063 252.274 18.0649 250.382 19.9676L250.331 20.018ZM201.396 55.7405L244.382 13.9347C247.776 10.522 252.301 8.53125 257.109 8.53125H346.192C356.373 8.53125 364.574 16.4943 364.574 26.448V246.853C364.574 256.806 356.373 264.769 346.192 264.769H214.405C204.224 264.769 196.023 256.806 196.023 246.853V68.2538C196.023 63.7035 198.003 59.1532 201.396 55.7405Z" fill="#B8AEF1"/>
<path d="M238.544 87.3985H242.168V98.2706C242.168 99.1186 241.992 99.9346 241.64 100.719C241.288 101.503 240.808 102.191 240.2 102.783C239.592 103.375 238.88 103.847 238.064 104.199C237.264 104.551 236.4 104.727 235.472 104.727C234.56 104.727 233.696 104.551 232.88 104.199C232.064 103.847 231.352 103.375 230.744 102.783C230.152 102.191 229.68 101.503 229.328 100.719C228.976 99.9346 228.8 99.1186 228.8 98.2706V87.3985H232.424V97.5506C232.424 98.0306 232.504 98.4866 232.664 98.9186C232.824 99.3346 233.04 99.7106 233.312 100.047C233.584 100.367 233.904 100.623 234.272 100.815C234.656 101.007 235.056 101.103 235.472 101.103C235.904 101.103 236.304 101.007 236.672 100.815C237.04 100.623 237.36 100.367 237.632 100.047C237.92 99.7106 238.144 99.3346 238.304 98.9186C238.464 98.4866 238.544 98.0306 238.544 97.5506V87.3985ZM250.416 92.5106C250.864 92.5106 251.36 92.5746 251.904 92.7025C252.448 92.8306 252.96 93.0706 253.44 93.4225C253.92 93.7746 254.32 94.2626 254.64 94.8866C254.976 95.5106 255.144 96.3186 255.144 97.3106V104.415H251.808V97.4306C251.808 97.0626 251.744 96.7506 251.616 96.4946C251.504 96.2386 251.344 96.0386 251.136 95.8946C250.944 95.7346 250.72 95.6226 250.464 95.5586C250.208 95.4786 249.952 95.4386 249.696 95.4386C249.488 95.4386 249.256 95.4786 249 95.5586C248.76 95.6226 248.528 95.7346 248.304 95.8946C248.096 96.0546 247.92 96.2626 247.776 96.5186C247.632 96.7746 247.56 97.0786 247.56 97.4306V104.415H244.248V92.5106H247.08L247.56 93.4225C247.944 93.1506 248.376 92.9346 248.856 92.7746C249.336 92.5986 249.856 92.5106 250.416 92.5106ZM257.304 86.8706H260.616V104.415H257.304V86.8706ZM266.246 104.415H262.934V92.5106H266.246V104.415ZM264.59 90.8786C264.078 90.8786 263.646 90.7026 263.294 90.3506C262.942 89.9985 262.766 89.5665 262.766 89.0545C262.766 88.5425 262.942 88.1105 263.294 87.7586C263.646 87.3906 264.078 87.2066 264.59 87.2066C265.102 87.2066 265.534 87.3906 265.886 87.7586C266.238 88.1105 266.414 88.5425 266.414 89.0545C266.414 89.5665 266.238 89.9985 265.886 90.3506C265.534 90.7026 265.102 90.8786 264.59 90.8786ZM281.964 92.5106C282.396 92.5106 282.86 92.5826 283.356 92.7266C283.852 92.8706 284.308 93.1266 284.724 93.4946C285.156 93.8626 285.508 94.3666 285.78 95.0066C286.052 95.6466 286.188 96.4626 286.188 97.4546V104.415H282.876V98.0546C282.876 97.5746 282.82 97.1666 282.708 96.8306C282.612 96.4946 282.476 96.2226 282.3 96.0146C282.124 95.8066 281.916 95.6626 281.676 95.5826C281.452 95.4866 281.22 95.4386 280.98 95.4386C280.756 95.4386 280.532 95.4786 280.308 95.5586C280.084 95.6386 279.884 95.7746 279.708 95.9666C279.532 96.1586 279.388 96.4226 279.276 96.7586C279.18 97.0946 279.132 97.5186 279.132 98.0306V104.415H275.82V98.0546C275.82 97.0786 275.652 96.3986 275.316 96.0146C274.98 95.6306 274.492 95.4386 273.852 95.4386C273.388 95.4386 272.972 95.6546 272.604 96.0866C272.236 96.5186 272.052 97.1906 272.052 98.1026V104.415H268.74V92.5106H271.572L272.052 93.6146C272.42 93.2626 272.844 92.9906 273.324 92.7986C273.82 92.6066 274.348 92.5106 274.908 92.5106C275.196 92.5106 275.5 92.5426 275.82 92.6066C276.14 92.6546 276.452 92.7506 276.756 92.8946C277.06 93.0386 277.348 93.2306 277.62 93.4706C277.908 93.6946 278.164 93.9826 278.388 94.3346C278.58 94.0306 278.812 93.7666 279.084 93.5426C279.356 93.3026 279.652 93.1106 279.972 92.9666C280.292 92.8066 280.62 92.6946 280.956 92.6306C281.308 92.5506 281.644 92.5106 281.964 92.5106ZM291.91 104.415H288.598V92.5106H291.91V104.415ZM290.254 90.8786C289.742 90.8786 289.31 90.7026 288.958 90.3506C288.606 89.9985 288.43 89.5665 288.43 89.0545C288.43 88.5425 288.606 88.1105 288.958 87.7586C289.31 87.3906 289.742 87.2066 290.254 87.2066C290.766 87.2066 291.198 87.3906 291.55 87.7586C291.902 88.1105 292.078 88.5425 292.078 89.0545C292.078 89.5665 291.902 89.9985 291.55 90.3506C291.198 90.7026 290.766 90.8786 290.254 90.8786ZM298.772 100.143C298.772 100.703 298.94 101.135 299.276 101.439C299.628 101.743 300.084 101.895 300.644 101.895C301.092 101.895 301.54 101.807 301.988 101.631V104.415C301.588 104.543 301.164 104.647 300.716 104.727C300.268 104.823 299.82 104.871 299.372 104.871C298.86 104.871 298.372 104.807 297.908 104.679C297.444 104.551 297.028 104.335 296.66 104.031C296.292 103.711 295.996 103.295 295.772 102.783C295.564 102.255 295.46 101.607 295.46 100.839V95.4626H293.756V93.2306L295.46 92.5106V89.8465H298.772V92.5106H301.988V95.4626H298.772V100.143ZM309.448 92.1745C310.344 92.1745 311.16 92.3585 311.896 92.7266C312.632 93.0786 313.264 93.5505 313.792 94.1425C314.32 94.7186 314.728 95.3906 315.016 96.1586C315.304 96.9106 315.448 97.6866 315.448 98.4866C315.448 98.9666 315.384 99.4786 315.256 100.023H306.76C307.08 100.567 307.536 101.031 308.128 101.415C308.72 101.783 309.36 101.967 310.048 101.967C310.736 101.967 311.336 101.911 311.848 101.799C312.376 101.687 312.872 101.543 313.336 101.367L314.44 103.407C313.848 103.823 313.168 104.143 312.4 104.367C311.648 104.591 310.84 104.703 309.976 104.703C309.032 104.703 308.152 104.543 307.336 104.223C306.52 103.887 305.808 103.439 305.2 102.879C304.592 102.319 304.112 101.655 303.76 100.887C303.408 100.119 303.232 99.3026 303.232 98.4386C303.232 97.5906 303.392 96.7906 303.712 96.0386C304.032 95.2706 304.472 94.6066 305.032 94.0466C305.608 93.4706 306.272 93.0146 307.024 92.6786C307.776 92.3425 308.584 92.1745 309.448 92.1745ZM312.16 97.4546C311.968 96.7666 311.624 96.2066 311.128 95.7746C310.632 95.3426 310.072 95.1266 309.448 95.1266C308.808 95.1266 308.224 95.3426 307.696 95.7746C307.184 96.2066 306.832 96.7666 306.64 97.4546H312.16ZM329.841 86.8946V104.415H327.009L326.529 103.383C326.161 103.767 325.649 104.087 324.993 104.343C324.353 104.583 323.681 104.703 322.977 104.703C322.129 104.703 321.345 104.543 320.625 104.223C319.905 103.887 319.281 103.439 318.753 102.879C318.241 102.303 317.833 101.639 317.529 100.887C317.241 100.119 317.097 99.3026 317.097 98.4386C317.097 97.5746 317.241 96.7666 317.529 96.0146C317.833 95.2466 318.241 94.5826 318.753 94.0226C319.281 93.4466 319.905 92.9986 320.625 92.6786C321.345 92.3425 322.129 92.1745 322.977 92.1745C323.729 92.1745 324.393 92.2625 324.969 92.4386C325.561 92.6146 326.081 92.9106 326.529 93.3266V86.8946H329.841ZM326.529 98.4866C326.529 97.8626 326.449 97.3426 326.289 96.9266C326.129 96.4946 325.905 96.1506 325.617 95.8946C325.329 95.6226 324.993 95.4306 324.609 95.3186C324.241 95.1906 323.841 95.1266 323.409 95.1266C322.977 95.1266 322.569 95.2146 322.185 95.3906C321.817 95.5666 321.489 95.8066 321.201 96.1106C320.929 96.3986 320.713 96.7506 320.553 97.1666C320.393 97.5666 320.313 97.9906 320.313 98.4386C320.313 98.9026 320.393 99.3346 320.553 99.7346C320.713 100.135 320.929 100.487 321.201 100.791C321.489 101.079 321.817 101.311 322.185 101.487C322.569 101.663 322.977 101.751 323.409 101.751C324.273 101.751 325.001 101.487 325.593 100.959C326.201 100.415 326.513 99.5906 326.529 98.4866ZM266.279 114.895V132.415H263.447L262.967 131.383C262.599 131.767 262.087 132.087 261.431 132.343C260.791 132.583 260.119 132.703 259.415 132.703C258.567 132.703 257.783 132.543 257.063 132.223C256.343 131.887 255.719 131.439 255.191 130.879C254.679 130.303 254.271 129.639 253.967 128.887C253.679 128.119 253.535 127.303 253.535 126.439C253.535 125.575 253.679 124.767 253.967 124.015C254.271 123.247 254.679 122.583 255.191 122.023C255.719 121.447 256.343 120.999 257.063 120.679C257.783 120.343 258.567 120.175 259.415 120.175C260.167 120.175 260.831 120.263 261.407 120.439C261.999 120.615 262.519 120.911 262.967 121.327V114.895H266.279ZM262.967 126.487C262.967 125.863 262.887 125.343 262.727 124.927C262.567 124.495 262.343 124.151 262.055 123.895C261.767 123.623 261.431 123.431 261.047 123.319C260.679 123.191 260.279 123.127 259.847 123.127C259.415 123.127 259.007 123.215 258.623 123.391C258.255 123.567 257.927 123.807 257.639 124.111C257.367 124.399 257.151 124.751 256.991 125.167C256.831 125.567 256.751 125.991 256.751 126.439C256.751 126.903 256.831 127.335 256.991 127.735C257.151 128.135 257.367 128.487 257.639 128.791C257.927 129.079 258.255 129.311 258.623 129.487C259.007 129.663 259.415 129.751 259.847 129.751C260.711 129.751 261.439 129.487 262.031 128.959C262.639 128.415 262.951 127.591 262.967 126.487ZM280.891 120.511V132.415H278.035L277.699 131.143C277.235 131.767 276.675 132.183 276.019 132.391C275.379 132.599 274.707 132.703 274.003 132.703C273.155 132.703 272.371 132.543 271.651 132.223C270.947 131.887 270.331 131.439 269.803 130.879C269.275 130.303 268.859 129.639 268.555 128.887C268.267 128.119 268.123 127.303 268.123 126.439C268.123 125.575 268.267 124.767 268.555 124.015C268.859 123.247 269.275 122.583 269.803 122.023C270.331 121.447 270.947 120.999 271.651 120.679C272.371 120.343 273.155 120.175 274.003 120.175C274.771 120.175 275.475 120.295 276.115 120.535C276.755 120.775 277.283 121.159 277.699 121.687L278.035 120.511H280.891ZM277.579 126.487C277.579 125.863 277.491 125.343 277.315 124.927C277.155 124.495 276.931 124.151 276.643 123.895C276.371 123.623 276.043 123.431 275.659 123.319C275.291 123.191 274.891 123.127 274.459 123.127C274.027 123.127 273.619 123.215 273.235 123.391C272.867 123.567 272.539 123.807 272.251 124.111C271.963 124.399 271.739 124.751 271.579 125.167C271.419 125.567 271.339 125.991 271.339 126.439C271.339 126.903 271.419 127.335 271.579 127.735C271.739 128.135 271.963 128.487 272.251 128.791C272.539 129.079 272.867 129.311 273.235 129.487C273.619 129.663 274.027 129.751 274.459 129.751C275.323 129.751 276.051 129.487 276.643 128.959C277.251 128.415 277.563 127.591 277.579 126.487ZM287.194 128.143C287.194 128.703 287.362 129.135 287.698 129.439C288.05 129.743 288.506 129.895 289.066 129.895C289.514 129.895 289.962 129.807 290.41 129.631V132.415C290.01 132.543 289.586 132.647 289.138 132.727C288.69 132.823 288.242 132.871 287.794 132.871C287.282 132.871 286.794 132.807 286.33 132.679C285.866 132.551 285.45 132.335 285.082 132.031C284.714 131.711 284.418 131.295 284.194 130.783C283.986 130.255 283.882 129.607 283.882 128.839V123.463H282.178V121.231L283.882 120.511V117.847H287.194V120.511H290.41V123.463H287.194V128.143ZM304.446 120.511V132.415H301.59L301.254 131.143C300.79 131.767 300.23 132.183 299.574 132.391C298.934 132.599 298.262 132.703 297.558 132.703C296.71 132.703 295.926 132.543 295.206 132.223C294.502 131.887 293.886 131.439 293.358 130.879C292.83 130.303 292.414 129.639 292.11 128.887C291.822 128.119 291.678 127.303 291.678 126.439C291.678 125.575 291.822 124.767 292.11 124.015C292.414 123.247 292.83 122.583 293.358 122.023C293.886 121.447 294.502 120.999 295.206 120.679C295.926 120.343 296.71 120.175 297.558 120.175C298.326 120.175 299.03 120.295 299.67 120.535C300.31 120.775 300.838 121.159 301.254 121.687L301.59 120.511H304.446ZM301.134 126.487C301.134 125.863 301.046 125.343 300.87 124.927C300.71 124.495 300.486 124.151 300.198 123.895C299.926 123.623 299.598 123.431 299.214 123.319C298.846 123.191 298.446 123.127 298.014 123.127C297.582 123.127 297.174 123.215 296.79 123.391C296.422 123.567 296.094 123.807 295.806 124.111C295.518 124.399 295.294 124.751 295.134 125.167C294.974 125.567 294.894 125.991 294.894 126.439C294.894 126.903 294.974 127.335 295.134 127.735C295.294 128.135 295.518 128.487 295.806 128.791C296.094 129.079 296.422 129.311 296.79 129.487C297.174 129.663 297.582 129.751 298.014 129.751C298.878 129.751 299.606 129.487 300.198 128.959C300.806 128.415 301.118 127.591 301.134 126.487ZM261.964 180.757C262.454 180.757 262.976 180.665 263.528 180.481C264.11 180.266 264.647 180.021 265.138 179.745C265.659 179.469 266.119 179.193 266.518 178.917C266.916 178.641 267.223 178.426 267.438 178.273L270.98 182.781C270.09 183.455 269.14 184.069 268.128 184.621C267.269 185.081 266.288 185.495 265.184 185.863C264.11 186.231 263.037 186.415 261.964 186.415H247.52L247.75 183.379C247.78 183.287 247.826 182.704 247.888 181.631C247.949 180.557 248.056 179.239 248.21 177.675L248.486 174.501H246.186V168.751H248.808V168.521C248.808 168.183 248.808 167.815 248.808 167.417C248.808 166.987 248.823 166.604 248.854 166.267C248.854 165.868 248.869 165.485 248.9 165.117C248.9 162.725 249.237 160.808 249.912 159.367C250.586 157.925 251.414 156.821 252.396 156.055C253.408 155.257 254.466 154.736 255.57 154.491C256.704 154.245 257.732 154.123 258.652 154.123C260.338 154.123 261.795 154.445 263.022 155.089C264.248 155.733 265.26 156.53 266.058 157.481C266.886 158.431 267.514 159.428 267.944 160.471C268.373 161.513 268.664 162.418 268.818 163.185L263.16 164.289C263.129 164.166 263.037 163.875 262.884 163.415C262.761 162.924 262.531 162.418 262.194 161.897C261.887 161.345 261.442 160.854 260.86 160.425C260.277 159.995 259.541 159.781 258.652 159.781C257.885 159.781 257.226 159.888 256.674 160.103C256.152 160.317 255.723 160.747 255.386 161.391C255.079 162.035 254.849 162.939 254.696 164.105C254.542 165.27 254.466 166.819 254.466 168.751H262.608V174.501H254.098L253.638 180.757H261.964ZM273.22 153.801H284.076V186.415H277.084V160.149H273.22V153.801ZM307.223 168.475C307.867 168.843 308.465 169.318 309.017 169.901C309.6 170.483 310.09 171.127 310.489 171.833C310.918 172.538 311.256 173.289 311.501 174.087C311.746 174.884 311.869 175.681 311.869 176.479C311.869 177.889 311.562 179.239 310.949 180.527C310.336 181.784 309.508 182.903 308.465 183.885C307.422 184.835 306.211 185.602 304.831 186.185C303.451 186.737 301.994 187.013 300.461 187.013C298.928 187.013 297.471 186.737 296.091 186.185C294.711 185.602 293.5 184.835 292.457 183.885C291.445 182.903 290.632 181.784 290.019 180.527C289.406 179.239 289.099 177.889 289.099 176.479C289.099 174.884 289.498 173.366 290.295 171.925C291.092 170.453 292.242 169.303 293.745 168.475C292.641 167.677 291.828 166.788 291.307 165.807C290.816 164.795 290.571 163.706 290.571 162.541C290.571 161.314 290.832 160.149 291.353 159.045C291.874 157.91 292.58 156.929 293.469 156.101C294.389 155.242 295.447 154.567 296.643 154.077C297.839 153.586 299.112 153.341 300.461 153.341C301.81 153.341 303.083 153.586 304.279 154.077C305.506 154.567 306.564 155.242 307.453 156.101C308.373 156.929 309.094 157.91 309.615 159.045C310.136 160.149 310.397 161.314 310.397 162.541C310.397 163.706 310.106 164.795 309.523 165.807C308.971 166.788 308.204 167.677 307.223 168.475ZM300.507 159.735C299.556 159.735 298.759 160.087 298.115 160.793C297.471 161.467 297.149 162.249 297.149 163.139C297.149 163.752 297.302 164.319 297.609 164.841C297.946 165.362 298.406 165.761 298.989 166.037C299.51 166.251 300.016 166.359 300.507 166.359C300.783 166.359 301.044 166.328 301.289 166.267C301.534 166.205 301.78 166.129 302.025 166.037C302.577 165.761 303.006 165.362 303.313 164.841C303.65 164.319 303.819 163.752 303.819 163.139C303.819 162.249 303.497 161.467 302.853 160.793C302.24 160.087 301.458 159.735 300.507 159.735ZM300.507 180.527C301.12 180.527 301.688 180.404 302.209 180.159C302.761 179.883 303.221 179.53 303.589 179.101C303.988 178.671 304.294 178.181 304.509 177.629C304.754 177.077 304.877 176.494 304.877 175.881C304.877 174.93 304.616 174.102 304.095 173.397C303.604 172.661 302.96 172.124 302.163 171.787C301.703 171.572 301.151 171.465 300.507 171.465C299.863 171.465 299.311 171.572 298.851 171.787C298.054 172.124 297.394 172.661 296.873 173.397C296.382 174.102 296.137 174.93 296.137 175.881C296.137 176.494 296.244 177.077 296.459 177.629C296.704 178.181 297.011 178.671 297.379 179.101C297.778 179.53 298.238 179.883 298.759 180.159C299.311 180.404 299.894 180.527 300.507 180.527ZM259.029 199.653H261.873L258.273 212.415H254.889L252.261 203.829L249.633 212.415H246.285L242.685 199.653H245.529L248.049 209.301L250.947 199.653H253.575L256.491 209.373L259.029 199.653ZM271.252 203.487V212.415H269.11L268.858 211.461C268.51 211.929 268.09 212.241 267.598 212.397C267.118 212.553 266.614 212.631 266.086 212.631C265.45 212.631 264.862 212.511 264.322 212.271C263.794 212.019 263.332 211.683 262.936 211.263C262.54 210.831 262.228 210.333 262 209.769C261.784 209.193 261.676 208.581 261.676 207.933C261.676 207.285 261.784 206.679 262 206.115C262.228 205.539 262.54 205.041 262.936 204.621C263.332 204.189 263.794 203.853 264.322 203.613C264.862 203.361 265.45 203.235 266.086 203.235C266.662 203.235 267.19 203.325 267.67 203.505C268.15 203.685 268.546 203.973 268.858 204.369L269.11 203.487H271.252ZM268.768 207.969C268.768 207.501 268.702 207.111 268.57 206.799C268.45 206.475 268.282 206.217 268.066 206.025C267.862 205.821 267.616 205.677 267.328 205.593C267.052 205.497 266.752 205.449 266.428 205.449C266.104 205.449 265.798 205.515 265.51 205.647C265.234 205.779 264.988 205.959 264.772 206.187C264.556 206.403 264.388 206.667 264.268 206.979C264.148 207.279 264.088 207.597 264.088 207.933C264.088 208.281 264.148 208.605 264.268 208.905C264.388 209.205 264.556 209.469 264.772 209.697C264.988 209.913 265.234 210.087 265.51 210.219C265.798 210.351 266.104 210.417 266.428 210.417C267.076 210.417 267.622 210.219 268.066 209.823C268.522 209.415 268.756 208.797 268.768 207.969ZM278.531 207.735C279.191 208.203 279.521 208.869 279.521 209.733C279.521 210.129 279.425 210.501 279.233 210.849C279.053 211.197 278.801 211.503 278.477 211.767C278.153 212.031 277.775 212.241 277.343 212.397C276.911 212.541 276.449 212.613 275.957 212.613C275.585 212.613 275.219 212.565 274.859 212.469C274.511 212.373 274.187 212.241 273.887 212.073C273.587 211.905 273.323 211.707 273.095 211.479C272.879 211.239 272.717 210.975 272.609 210.687C272.885 210.555 273.191 210.411 273.527 210.255C273.863 210.087 274.157 209.937 274.409 209.805C274.517 209.985 274.685 210.153 274.913 210.309C275.141 210.453 275.453 210.525 275.849 210.525C276.257 210.525 276.557 210.429 276.749 210.237C276.941 210.045 277.037 209.865 277.037 209.697C277.037 209.577 276.971 209.469 276.839 209.373C276.707 209.265 276.557 209.181 276.389 209.121C276.149 209.025 275.951 208.977 275.795 208.977C275.639 208.965 275.459 208.929 275.255 208.869C274.607 208.713 274.109 208.509 273.761 208.257C273.425 207.993 273.179 207.729 273.023 207.465C272.867 207.201 272.777 206.949 272.753 206.709C272.741 206.469 272.735 206.277 272.735 206.133C272.735 205.749 272.819 205.383 272.987 205.035C273.155 204.687 273.383 204.387 273.671 204.135C273.971 203.871 274.313 203.661 274.697 203.505C275.093 203.349 275.513 203.271 275.957 203.271C276.329 203.271 276.683 203.325 277.019 203.433C277.355 203.541 277.661 203.691 277.937 203.883C278.213 204.075 278.447 204.303 278.639 204.567C278.843 204.831 278.993 205.125 279.089 205.449L277.163 206.097C277.091 205.881 276.941 205.707 276.713 205.575C276.497 205.443 276.263 205.377 276.011 205.377C275.759 205.377 275.555 205.461 275.399 205.629C275.243 205.797 275.165 205.965 275.165 206.133C275.165 206.337 275.237 206.499 275.381 206.619C275.537 206.727 275.705 206.805 275.885 206.853C276.017 206.877 276.143 206.901 276.263 206.925C276.395 206.937 276.521 206.955 276.641 206.979C277.061 207.075 277.421 207.183 277.721 207.303C278.033 207.423 278.303 207.567 278.531 207.735ZM291.631 210.201C291.823 210.201 292.027 210.165 292.243 210.093C292.471 210.009 292.681 209.913 292.873 209.805C293.077 209.697 293.257 209.589 293.413 209.481C293.569 209.373 293.689 209.289 293.773 209.229L295.159 210.993C294.811 211.257 294.439 211.497 294.043 211.713C293.707 211.893 293.323 212.055 292.891 212.199C292.471 212.343 292.051 212.415 291.631 212.415H285.979L286.069 211.227C286.081 211.191 286.099 210.963 286.123 210.543C286.147 210.123 286.189 209.607 286.249 208.995L286.357 207.753H285.457V205.503H286.483V205.413C286.483 205.281 286.483 205.137 286.483 204.981C286.483 204.813 286.489 204.663 286.501 204.531C286.501 204.375 286.507 204.225 286.519 204.081C286.519 203.145 286.651 202.395 286.915 201.831C287.179 201.267 287.503 200.835 287.887 200.535C288.283 200.223 288.697 200.019 289.129 199.923C289.573 199.827 289.975 199.779 290.335 199.779C290.995 199.779 291.565 199.905 292.045 200.157C292.525 200.409 292.921 200.721 293.233 201.093C293.557 201.465 293.803 201.855 293.971 202.263C294.139 202.671 294.253 203.025 294.313 203.325L292.099 203.757C292.087 203.709 292.051 203.595 291.991 203.415C291.943 203.223 291.853 203.025 291.721 202.821C291.601 202.605 291.427 202.413 291.199 202.245C290.971 202.077 290.683 201.993 290.335 201.993C290.035 201.993 289.777 202.035 289.561 202.119C289.357 202.203 289.189 202.371 289.057 202.623C288.937 202.875 288.847 203.229 288.787 203.685C288.727 204.141 288.697 204.747 288.697 205.503H291.883V207.753H288.553L288.373 210.201H291.631ZM300.104 199.473C300.668 199.473 301.196 199.581 301.688 199.797C302.192 200.013 302.624 200.301 302.984 200.661C303.356 201.021 303.65 201.447 303.866 201.939C304.082 202.419 304.19 202.929 304.19 203.469C304.19 203.913 304.094 204.381 303.902 204.873C303.71 205.365 303.41 205.839 303.002 206.295L299.798 209.949H304.118V212.415H295.838V210.651C296.714 209.607 297.512 208.665 298.232 207.825C298.532 207.465 298.826 207.111 299.114 206.763C299.414 206.403 299.684 206.079 299.924 205.791C300.176 205.491 300.386 205.245 300.554 205.053C300.722 204.849 300.824 204.717 300.86 204.657C301.028 204.429 301.16 204.219 301.256 204.027C301.352 203.835 301.4 203.637 301.4 203.433C301.4 202.953 301.256 202.587 300.968 202.335C300.68 202.071 300.326 201.939 299.906 201.939C299.702 201.939 299.504 201.981 299.312 202.065C299.132 202.149 298.97 202.263 298.826 202.407C298.694 202.551 298.586 202.719 298.502 202.911C298.43 203.091 298.394 203.277 298.394 203.469H296.018C296.018 202.929 296.126 202.419 296.342 201.939C296.558 201.447 296.846 201.021 297.206 200.661C297.578 200.301 298.01 200.013 298.502 199.797C299.006 199.581 299.54 199.473 300.104 199.473ZM310.733 199.491C311.453 199.491 312.119 199.629 312.731 199.905C313.343 200.181 313.865 200.583 314.297 201.111C314.717 201.627 315.047 202.239 315.287 202.947C315.539 203.655 315.665 204.447 315.665 205.323V206.889C315.665 207.717 315.539 208.479 315.287 209.175C315.035 209.859 314.687 210.459 314.243 210.975C313.799 211.503 313.277 211.905 312.677 212.181C312.077 212.445 311.429 212.577 310.733 212.577C310.049 212.577 309.401 212.433 308.789 212.145C308.189 211.857 307.661 211.443 307.205 210.903C306.773 210.387 306.425 209.787 306.161 209.103C305.909 208.419 305.783 207.681 305.783 206.889V205.323C305.783 204.459 305.903 203.673 306.143 202.965C306.383 202.245 306.713 201.633 307.133 201.129C307.565 200.589 308.087 200.181 308.699 199.905C309.323 199.629 310.001 199.491 310.733 199.491ZM312.911 205.413C312.911 204.261 312.683 203.373 312.227 202.749C311.855 202.233 311.345 201.975 310.697 201.975C310.049 201.975 309.539 202.233 309.167 202.749C308.711 203.373 308.483 204.261 308.483 205.413V206.763C308.483 207.267 308.543 207.735 308.663 208.167C308.783 208.587 308.963 208.953 309.203 209.265C309.611 209.829 310.109 210.111 310.697 210.111C311.033 210.111 311.333 210.033 311.597 209.877C311.873 209.709 312.107 209.481 312.299 209.193C312.491 208.893 312.641 208.539 312.749 208.131C312.857 207.723 312.911 207.267 312.911 206.763V205.413Z" fill="white"/>
</svg>
